<svg xmlns="http://www.w3.org/2000/svg" xmlns:xlink="http://www.w3.org/1999/xlink" width="500" zoomAndPan="magnify" viewBox="0 0 375 374.999991" height="500" preserveAspectRatio="xMidYMid meet" version="1.0"><defs><g/><clipPath id="fbaee3db17"><path d="M 21 53.414062 L 353.933594 53.414062 L 353.933594 187.664062 L 21 187.664062 Z M 21 53.414062 " clip-rule="nonzero"/></clipPath><clipPath id="ac247cdf38"><path d="M 104 53.414062 L 271 53.414062 L 271 187.664062 L 104 187.664062 Z M 104 53.414062 " clip-rule="nonzero"/></clipPath><clipPath id="a090d4dfd6"><rect x="0" width="241" y="0" height="46"/></clipPath></defs><path fill="#000000" d="M 43.117188 167.023438 C 72.824219 167.023438 97.796875 175.273438 105.046875 186.457031 C 114.808594 178.542969 148.011719 172.71875 187.492188 172.71875 C 227.199219 172.71875 260.566406 178.609375 270.109375 186.589844 C 277.246094 175.335938 302.304688 167.023438 332.132812 167.023438 C 339.230469 167.023438 346.054688 167.5 352.441406 168.367188 C 327.355469 101.644531 262.984375 54.148438 187.492188 54.148438 C 111.984375 54.148438 47.605469 101.660156 22.53125 168.40625 C 28.992188 167.511719 35.914062 167.023438 43.117188 167.023438 Z M 43.117188 167.023438 " fill-opacity="1" fill-rule="nonzero"/><g clip-path="url(#fbaee3db17)"><path fill="#ffffff" d="M 270.109375 187.324219 C 269.941406 187.324219 269.773438 187.261719 269.640625 187.152344 C 259.988281 179.085938 226.210938 173.453125 187.492188 173.453125 C 149.082031 173.453125 115.367188 179.035156 105.507812 187.027344 C 105.347656 187.15625 105.136719 187.210938 104.933594 187.179688 C 104.726562 187.148438 104.542969 187.027344 104.433594 186.851562 C 97.144531 175.609375 71.929688 167.753906 43.117188 167.753906 C 36.128906 167.753906 29.238281 168.21875 22.628906 169.132812 C 22.367188 169.160156 22.117188 169.0625 21.957031 168.863281 C 21.796875 168.660156 21.75 168.390625 21.84375 168.148438 C 34.375 134.792969 56.445312 106.261719 85.675781 85.644531 C 115.570312 64.558594 150.777344 53.414062 187.492188 53.414062 C 224.199219 53.414062 259.398438 64.558594 289.292969 85.636719 C 318.464844 106.210938 340.511719 134.667969 353.058594 167.933594 C 353.148438 168.058594 353.199219 168.207031 353.199219 168.371094 C 353.199219 168.78125 352.8125 169.125 352.453125 169.105469 C 352.417969 169.101562 352.375 169.101562 352.339844 169.097656 C 345.8125 168.210938 339.011719 167.757812 332.132812 167.757812 C 303.15625 167.757812 277.90625 175.664062 270.730469 186.984375 C 270.617188 187.164062 270.429688 187.28125 270.222656 187.316406 C 270.183594 187.320312 270.148438 187.324219 270.109375 187.324219 Z M 187.492188 171.984375 C 225.722656 171.984375 259.285156 177.523438 269.941406 185.523438 C 277.917969 174.164062 303.25 166.289062 332.132812 166.289062 C 338.652344 166.289062 345.101562 166.691406 351.316406 167.484375 C 325.433594 100.078125 259.757812 54.878906 187.492188 54.878906 C 115.207031 54.878906 49.527344 100.09375 23.652344 167.515625 C 29.949219 166.703125 36.492188 166.289062 43.117188 166.289062 C 71.84375 166.289062 97.144531 174.113281 105.214844 185.398438 C 116.039062 177.476562 149.546875 171.984375 187.492188 171.984375 Z M 187.492188 171.984375 " fill-opacity="1" fill-rule="nonzero"/></g><path fill="#000000" d="M 270.214844 186.671875 C 260.800781 110.488281 227.335938 54.148438 187.492188 54.148438 C 147.648438 54.148438 114.183594 110.488281 104.769531 186.671875 C 114.183594 178.652344 147.648438 172.71875 187.492188 172.71875 C 227.335938 172.71875 260.800781 178.652344 270.214844 186.671875 Z M 270.214844 186.671875 " fill-opacity="1" fill-rule="nonzero"/><g clip-path="url(#ac247cdf38)"><path fill="#ffffff" d="M 270.214844 187.40625 C 270.042969 187.40625 269.875 187.34375 269.738281 187.230469 C 260.21875 179.117188 226.398438 173.453125 187.492188 173.453125 C 148.589844 173.453125 114.765625 179.117188 105.246094 187.230469 C 105.019531 187.429688 104.691406 187.460938 104.421875 187.320312 C 104.15625 187.175781 104.007812 186.882812 104.042969 186.582031 C 113.730469 108.175781 148.046875 53.414062 187.492188 53.414062 C 226.9375 53.414062 261.253906 108.175781 270.941406 186.582031 C 270.980469 186.882812 270.828125 187.175781 270.5625 187.316406 C 270.453125 187.378906 270.332031 187.40625 270.214844 187.40625 Z M 187.492188 171.984375 C 224.996094 171.984375 257.921875 177.296875 269.269531 185.035156 C 259.390625 108.3125 225.886719 54.878906 187.492188 54.878906 C 149.097656 54.878906 115.59375 108.3125 105.714844 185.035156 C 117.0625 177.296875 149.984375 171.984375 187.492188 171.984375 Z M 187.492188 171.984375 " fill-opacity="1" fill-rule="nonzero"/></g><g transform="matrix(1, 0, 0, 1, 67, 212)"><g clip-path="url(#a090d4dfd6)"><g fill="#ffffff" fill-opacity="1"><g transform="translate(1.061605, 36.591482)"><g><path d="M 25.046875 0 L 3.375 0 L 3.375 -30.203125 L 25.515625 -30.203125 C 29.441406 -30.203125 32.675781 -30.019531 35.21875 -29.65625 C 37.757812 -29.300781 39.71875 -28.742188 41.09375 -27.984375 C 42.46875 -27.222656 43.398438 -26.25 43.890625 -25.0625 C 44.390625 -23.882812 44.640625 -22.472656 44.640625 -20.828125 C 44.597656 -19.535156 44.242188 -18.460938 43.578125 -17.609375 C 42.910156 -16.765625 42.128906 -16.132812 41.234375 -15.71875 C 40.335938 -15.3125 39.554688 -15.109375 38.890625 -15.109375 C 39.546875 -15.109375 40.316406 -14.976562 41.203125 -14.71875 C 42.085938 -14.457031 42.945312 -14.078125 43.78125 -13.578125 C 44.613281 -13.085938 45.304688 -12.492188 45.859375 -11.796875 C 46.421875 -11.097656 46.703125 -10.296875 46.703125 -9.390625 C 46.703125 -8.210938 46.5625 -7.128906 46.28125 -6.140625 C 46.007812 -5.160156 45.460938 -4.289062 44.640625 -3.53125 C 43.828125 -2.78125 42.617188 -2.140625 41.015625 -1.609375 C 39.410156 -1.085938 37.3125 -0.6875 34.71875 -0.40625 C 32.132812 -0.132812 28.910156 0 25.046875 0 Z M 24.328125 -17.6875 C 26.179688 -17.6875 27.617188 -17.773438 28.640625 -17.953125 C 29.660156 -18.140625 30.363281 -18.421875 30.75 -18.796875 C 31.144531 -19.171875 31.34375 -19.644531 31.34375 -20.21875 C 31.34375 -20.8125 31.144531 -21.289062 30.75 -21.65625 C 30.363281 -22.03125 29.660156 -22.304688 28.640625 -22.484375 C 27.617188 -22.660156 26.179688 -22.75 24.328125 -22.75 L 16.046875 -22.75 L 16.046875 -17.6875 Z M 24.328125 -7.453125 C 26.222656 -7.453125 27.757812 -7.5 28.9375 -7.59375 C 30.125 -7.695312 30.988281 -7.925781 31.53125 -8.28125 C 32.082031 -8.632812 32.359375 -9.203125 32.359375 -9.984375 C 32.359375 -10.773438 32.082031 -11.347656 31.53125 -11.703125 C 30.988281 -12.054688 30.125 -12.28125 28.9375 -12.375 C 27.757812 -12.46875 26.222656 -12.515625 24.328125 -12.515625 L 16.046875 -12.515625 L 16.046875 -7.453125 Z M 24.328125 -7.453125 "/></g></g></g><g fill="#ffffff" fill-opacity="1"><g transform="translate(49.45076, 36.591482)"><g><path d="M 44.640625 0 L 32.65625 0 C 32.101562 -0.757812 31.710938 -1.726562 31.484375 -2.90625 C 31.296875 -3.820312 31.003906 -4.71875 30.609375 -5.59375 C 30.210938 -6.46875 29.53125 -7.195312 28.5625 -7.78125 C 27.601562 -8.363281 26.175781 -8.675781 24.28125 -8.71875 L 16.046875 -8.71875 L 16.046875 0 L 3.375 0 L 3.375 -30.234375 L 24 -30.234375 C 28.925781 -30.234375 32.898438 -29.863281 35.921875 -29.125 C 38.953125 -28.382812 41.160156 -27.222656 42.546875 -25.640625 C 43.941406 -24.066406 44.640625 -22.007812 44.640625 -19.46875 C 44.640625 -17.34375 44.15625 -15.554688 43.1875 -14.109375 C 42.226562 -12.660156 40.707031 -11.519531 38.625 -10.6875 C 40.632812 -9.851562 41.9375 -8.859375 42.53125 -7.703125 C 43.132812 -6.546875 43.503906 -5.269531 43.640625 -3.875 C 43.785156 -2.632812 44.117188 -1.34375 44.640625 0 Z M 16.046875 -16.171875 L 23.296875 -16.203125 C 25.316406 -16.203125 26.910156 -16.289062 28.078125 -16.46875 C 29.242188 -16.65625 30.101562 -16.90625 30.65625 -17.21875 C 31.207031 -17.53125 31.5625 -17.878906 31.71875 -18.265625 C 31.875 -18.660156 31.953125 -19.0625 31.953125 -19.46875 C 31.953125 -19.875 31.875 -20.269531 31.71875 -20.65625 C 31.5625 -21.050781 31.207031 -21.40625 30.65625 -21.71875 C 30.101562 -22.039062 29.242188 -22.289062 28.078125 -22.46875 C 26.910156 -22.65625 25.316406 -22.75 23.296875 -22.75 L 16.046875 -22.75 Z M 16.046875 -16.171875 "/></g></g></g><g fill="#ffffff" fill-opacity="1"><g transform="translate(95.775423, 36.591482)"><g><path d="M 22.859375 0.65625 C 15.390625 0.65625 9.890625 -0.878906 6.359375 -3.953125 C 3.242188 -6.679688 1.6875 -10.398438 1.6875 -15.109375 C 1.6875 -19.796875 3.242188 -23.5 6.359375 -26.21875 C 9.890625 -29.300781 15.390625 -30.84375 22.859375 -30.84375 C 30.328125 -30.84375 35.820312 -29.300781 39.34375 -26.21875 C 42.46875 -23.5 44.03125 -19.796875 44.03125 -15.109375 C 44.03125 -10.398438 42.46875 -6.679688 39.34375 -3.953125 C 35.820312 -0.878906 30.328125 0.65625 22.859375 0.65625 Z M 22.859375 -7.453125 C 25.921875 -7.453125 28.164062 -8.332031 29.59375 -10.09375 C 30.75 -11.507812 31.328125 -13.179688 31.328125 -15.109375 C 31.328125 -17.023438 30.75 -18.6875 29.59375 -20.09375 C 28.164062 -21.863281 25.921875 -22.75 22.859375 -22.75 C 19.796875 -22.75 17.539062 -21.863281 16.09375 -20.09375 C 14.9375 -18.6875 14.359375 -17.023438 14.359375 -15.109375 C 14.359375 -13.179688 14.9375 -11.507812 16.09375 -10.09375 C 17.539062 -8.332031 19.796875 -7.453125 22.859375 -7.453125 Z M 22.859375 -7.453125 "/></g></g></g><g fill="#ffffff" fill-opacity="1"><g transform="translate(141.489165, 36.591482)"><g><path d="M 38.65625 0 L 3.375 0 L 3.375 -30.234375 L 16.046875 -30.234375 L 16.046875 -7.484375 L 38.65625 -7.484375 Z M 38.65625 0 "/></g></g></g><g fill="#ffffff" fill-opacity="1"><g transform="translate(180.988367, 36.591482)"><g><path d="M 38.65625 0 L 3.375 0 L 3.375 -30.234375 L 16.046875 -30.234375 L 16.046875 -7.484375 L 38.65625 -7.484375 Z M 38.65625 0 "/></g></g></g><g fill="#ffffff" fill-opacity="1"><g transform="translate(220.487568, 36.591482)"><g><path d="M 16.046875 0 L 3.375 0 L 3.375 -30.234375 L 16.046875 -30.234375 Z M 16.046875 0 "/></g></g></g></g></g></svg>