<svg xmlns="http://www.w3.org/2000/svg" xmlns:xlink="http://www.w3.org/1999/xlink" width="500" zoomAndPan="magnify" viewBox="0 0 375 374.999991" height="500" preserveAspectRatio="xMidYMid meet" version="1.0"><defs><g/><clipPath id="0f57312066"><path d="M 21 53.414062 L 353.933594 53.414062 L 353.933594 187.664062 L 21 187.664062 Z M 21 53.414062 " clip-rule="nonzero"/></clipPath><clipPath id="3e53cf1070"><path d="M 104 53.414062 L 271 53.414062 L 271 187.664062 L 104 187.664062 Z M 104 53.414062 " clip-rule="nonzero"/></clipPath><clipPath id="574dd1f0a7"><rect x="0" width="241" y="0" height="46"/></clipPath></defs><path fill="#ffffff" d="M 43.109375 167.164062 C 72.804688 167.164062 97.765625 175.421875 105.015625 186.617188 C 114.769531 178.695312 147.960938 172.863281 187.425781 172.863281 C 227.117188 172.863281 260.472656 178.761719 270.015625 186.753906 C 277.144531 175.484375 302.195312 167.160156 332.011719 167.160156 C 339.109375 167.160156 345.929688 167.636719 352.3125 168.507812 C 327.234375 101.703125 262.894531 54.148438 187.425781 54.148438 C 111.949219 54.148438 47.59375 101.71875 22.53125 168.546875 C 28.988281 167.652344 35.90625 167.164062 43.109375 167.164062 Z M 43.109375 167.164062 " fill-opacity="1" fill-rule="nonzero"/><g clip-path="url(#0f57312066)"><path fill="#1d2445" d="M 270.015625 187.488281 C 269.84375 187.488281 269.675781 187.425781 269.542969 187.316406 C 259.898438 179.238281 226.128906 173.597656 187.425781 173.597656 C 149.03125 173.597656 115.332031 179.1875 105.476562 187.1875 C 105.316406 187.320312 105.105469 187.375 104.898438 187.34375 C 104.695312 187.3125 104.511719 187.191406 104.398438 187.015625 C 97.113281 175.757812 71.910156 167.894531 43.109375 167.894531 C 36.121094 167.894531 29.234375 168.359375 22.628906 169.273438 C 22.367188 169.304688 22.117188 169.207031 21.957031 169.003906 C 21.796875 168.800781 21.75 168.53125 21.84375 168.285156 C 34.367188 134.890625 56.433594 106.328125 85.648438 85.683594 C 115.535156 64.574219 150.726562 53.414062 187.425781 53.414062 C 224.121094 53.414062 259.308594 64.570312 289.1875 85.675781 C 318.347656 106.273438 340.390625 134.765625 352.929688 168.074219 C 353.019531 168.199219 353.074219 168.347656 353.074219 168.511719 C 353.074219 168.921875 352.683594 169.265625 352.324219 169.246094 C 352.289062 169.242188 352.25 169.242188 352.210938 169.238281 C 345.6875 168.351562 338.890625 167.898438 332.011719 167.898438 C 303.046875 167.898438 277.804688 175.816406 270.632812 187.148438 C 270.519531 187.324219 270.335938 187.445312 270.125 187.480469 C 270.089844 187.484375 270.050781 187.488281 270.015625 187.488281 Z M 187.425781 172.128906 C 225.644531 172.128906 259.195312 177.675781 269.84375 185.683594 C 277.820312 174.3125 303.140625 166.429688 332.011719 166.429688 C 338.53125 166.429688 344.976562 166.828125 351.1875 167.625 C 325.316406 100.136719 259.664062 54.882812 187.425781 54.882812 C 115.171875 54.882812 49.515625 100.148438 23.652344 167.65625 C 29.945312 166.839844 36.484375 166.425781 43.109375 166.425781 C 71.824219 166.425781 97.117188 174.261719 105.183594 185.5625 C 116.003906 177.628906 149.496094 172.128906 187.425781 172.128906 Z M 187.425781 172.128906 " fill-opacity="1" fill-rule="nonzero"/></g><path fill="#ffffff" d="M 270.117188 186.835938 C 260.707031 110.554688 227.253906 54.148438 187.425781 54.148438 C 147.601562 54.148438 114.148438 110.554688 104.738281 186.835938 C 114.148438 178.804688 147.601562 172.863281 187.425781 172.863281 C 227.253906 172.863281 260.707031 178.804688 270.117188 186.835938 Z M 270.117188 186.835938 " fill-opacity="1" fill-rule="nonzero"/><g clip-path="url(#3e53cf1070)"><path fill="#1d2445" d="M 270.117188 187.570312 C 269.949219 187.570312 269.777344 187.507812 269.644531 187.394531 C 260.125 179.273438 226.316406 173.597656 187.429688 173.597656 C 148.539062 173.597656 114.730469 179.269531 105.214844 187.394531 C 104.984375 187.589844 104.65625 187.625 104.390625 187.484375 C 104.125 187.339844 103.972656 187.046875 104.011719 186.746094 C 113.695312 108.242188 147.996094 53.414062 187.425781 53.414062 C 226.855469 53.414062 261.160156 108.242188 270.84375 186.746094 C 270.882812 187.046875 270.730469 187.335938 270.464844 187.480469 C 270.355469 187.542969 270.238281 187.570312 270.117188 187.570312 Z M 187.425781 172.128906 C 224.917969 172.128906 257.832031 177.449219 269.171875 185.195312 C 259.296875 108.378906 225.808594 54.882812 187.425781 54.882812 C 149.046875 54.882812 115.558594 108.378906 105.683594 185.199219 C 117.023438 177.449219 149.9375 172.128906 187.425781 172.128906 Z M 187.425781 172.128906 " fill-opacity="1" fill-rule="nonzero"/></g><g transform="matrix(1, 0, 0, 1, 67, 212)"><g clip-path="url(#574dd1f0a7)"><g fill="#000000" fill-opacity="1"><g transform="translate(1.061605, 36.591467)"><g><path d="M 25.046875 0 L 3.375 0 L 3.375 -30.203125 L 25.515625 -30.203125 C 29.441406 -30.203125 32.675781 -30.019531 35.21875 -29.65625 C 37.757812 -29.300781 39.71875 -28.742188 41.09375 -27.984375 C 42.46875 -27.222656 43.398438 -26.25 43.890625 -25.0625 C 44.390625 -23.882812 44.640625 -22.472656 44.640625 -20.828125 C 44.597656 -19.535156 44.242188 -18.460938 43.578125 -17.609375 C 42.910156 -16.765625 42.128906 -16.132812 41.234375 -15.71875 C 40.335938 -15.3125 39.554688 -15.109375 38.890625 -15.109375 C 39.546875 -15.109375 40.316406 -14.976562 41.203125 -14.71875 C 42.085938 -14.457031 42.945312 -14.078125 43.78125 -13.578125 C 44.613281 -13.085938 45.304688 -12.492188 45.859375 -11.796875 C 46.421875 -11.097656 46.703125 -10.296875 46.703125 -9.390625 C 46.703125 -8.210938 46.5625 -7.128906 46.28125 -6.140625 C 46.007812 -5.160156 45.460938 -4.289062 44.640625 -3.53125 C 43.828125 -2.78125 42.617188 -2.140625 41.015625 -1.609375 C 39.410156 -1.085938 37.3125 -0.6875 34.71875 -0.40625 C 32.132812 -0.132812 28.910156 0 25.046875 0 Z M 24.328125 -17.6875 C 26.179688 -17.6875 27.617188 -17.773438 28.640625 -17.953125 C 29.660156 -18.140625 30.363281 -18.421875 30.75 -18.796875 C 31.144531 -19.171875 31.34375 -19.644531 31.34375 -20.21875 C 31.34375 -20.8125 31.144531 -21.289062 30.75 -21.65625 C 30.363281 -22.03125 29.660156 -22.304688 28.640625 -22.484375 C 27.617188 -22.660156 26.179688 -22.75 24.328125 -22.75 L 16.046875 -22.75 L 16.046875 -17.6875 Z M 24.328125 -7.453125 C 26.222656 -7.453125 27.757812 -7.5 28.9375 -7.59375 C 30.125 -7.695312 30.988281 -7.925781 31.53125 -8.28125 C 32.082031 -8.632812 32.359375 -9.203125 32.359375 -9.984375 C 32.359375 -10.773438 32.082031 -11.347656 31.53125 -11.703125 C 30.988281 -12.054688 30.125 -12.28125 28.9375 -12.375 C 27.757812 -12.46875 26.222656 -12.515625 24.328125 -12.515625 L 16.046875 -12.515625 L 16.046875 -7.453125 Z M 24.328125 -7.453125 "/></g></g></g><g fill="#000000" fill-opacity="1"><g transform="translate(49.45076, 36.591467)"><g><path d="M 44.640625 0 L 32.65625 0 C 32.101562 -0.757812 31.710938 -1.726562 31.484375 -2.90625 C 31.296875 -3.820312 31.003906 -4.71875 30.609375 -5.59375 C 30.210938 -6.46875 29.53125 -7.195312 28.5625 -7.78125 C 27.601562 -8.363281 26.175781 -8.675781 24.28125 -8.71875 L 16.046875 -8.71875 L 16.046875 0 L 3.375 0 L 3.375 -30.234375 L 24 -30.234375 C 28.925781 -30.234375 32.898438 -29.863281 35.921875 -29.125 C 38.953125 -28.382812 41.160156 -27.222656 42.546875 -25.640625 C 43.941406 -24.066406 44.640625 -22.007812 44.640625 -19.46875 C 44.640625 -17.34375 44.15625 -15.554688 43.1875 -14.109375 C 42.226562 -12.660156 40.707031 -11.519531 38.625 -10.6875 C 40.632812 -9.851562 41.9375 -8.859375 42.53125 -7.703125 C 43.132812 -6.546875 43.503906 -5.269531 43.640625 -3.875 C 43.785156 -2.632812 44.117188 -1.34375 44.640625 0 Z M 16.046875 -16.171875 L 23.296875 -16.203125 C 25.316406 -16.203125 26.910156 -16.289062 28.078125 -16.46875 C 29.242188 -16.65625 30.101562 -16.90625 30.65625 -17.21875 C 31.207031 -17.53125 31.5625 -17.878906 31.71875 -18.265625 C 31.875 -18.660156 31.953125 -19.0625 31.953125 -19.46875 C 31.953125 -19.875 31.875 -20.269531 31.71875 -20.65625 C 31.5625 -21.050781 31.207031 -21.40625 30.65625 -21.71875 C 30.101562 -22.039062 29.242188 -22.289062 28.078125 -22.46875 C 26.910156 -22.65625 25.316406 -22.75 23.296875 -22.75 L 16.046875 -22.75 Z M 16.046875 -16.171875 "/></g></g></g><g fill="#000000" fill-opacity="1"><g transform="translate(95.775423, 36.591467)"><g><path d="M 22.859375 0.65625 C 15.390625 0.65625 9.890625 -0.878906 6.359375 -3.953125 C 3.242188 -6.679688 1.6875 -10.398438 1.6875 -15.109375 C 1.6875 -19.796875 3.242188 -23.5 6.359375 -26.21875 C 9.890625 -29.300781 15.390625 -30.84375 22.859375 -30.84375 C 30.328125 -30.84375 35.820312 -29.300781 39.34375 -26.21875 C 42.46875 -23.5 44.03125 -19.796875 44.03125 -15.109375 C 44.03125 -10.398438 42.46875 -6.679688 39.34375 -3.953125 C 35.820312 -0.878906 30.328125 0.65625 22.859375 0.65625 Z M 22.859375 -7.453125 C 25.921875 -7.453125 28.164062 -8.332031 29.59375 -10.09375 C 30.75 -11.507812 31.328125 -13.179688 31.328125 -15.109375 C 31.328125 -17.023438 30.75 -18.6875 29.59375 -20.09375 C 28.164062 -21.863281 25.921875 -22.75 22.859375 -22.75 C 19.796875 -22.75 17.539062 -21.863281 16.09375 -20.09375 C 14.9375 -18.6875 14.359375 -17.023438 14.359375 -15.109375 C 14.359375 -13.179688 14.9375 -11.507812 16.09375 -10.09375 C 17.539062 -8.332031 19.796875 -7.453125 22.859375 -7.453125 Z M 22.859375 -7.453125 "/></g></g></g><g fill="#000000" fill-opacity="1"><g transform="translate(141.489165, 36.591467)"><g><path d="M 38.65625 0 L 3.375 0 L 3.375 -30.234375 L 16.046875 -30.234375 L 16.046875 -7.484375 L 38.65625 -7.484375 Z M 38.65625 0 "/></g></g></g><g fill="#000000" fill-opacity="1"><g transform="translate(180.988367, 36.591467)"><g><path d="M 38.65625 0 L 3.375 0 L 3.375 -30.234375 L 16.046875 -30.234375 L 16.046875 -7.484375 L 38.65625 -7.484375 Z M 38.65625 0 "/></g></g></g><g fill="#000000" fill-opacity="1"><g transform="translate(220.487568, 36.591467)"><g><path d="M 16.046875 0 L 3.375 0 L 3.375 -30.234375 L 16.046875 -30.234375 Z M 16.046875 0 "/></g></g></g></g></g></svg>